<?xml version="1.0" encoding="UTF-8" standalone="no"?>
<!-- Generator: Adobe Illustrator 16.0.0, SVG Export Plug-In . SVG Version: 6.00 Build 0)  -->

<svg
   xmlns:dc="http://purl.org/dc/elements/1.1/"
   xmlns:cc="http://creativecommons.org/ns#"
   xmlns:rdf="http://www.w3.org/1999/02/22-rdf-syntax-ns#"
   xmlns:svg="http://www.w3.org/2000/svg"
   xmlns="http://www.w3.org/2000/svg"
   xmlns:sodipodi="http://sodipodi.sourceforge.net/DTD/sodipodi-0.dtd"
   xmlns:inkscape="http://www.inkscape.org/namespaces/inkscape"
   version="1.1"
   id="Ebene_1"
   x="0px"
   y="0px"
   width="1000"
   height="500"
   viewBox="0 0 999.99995 500"
   enable-background="new 0 0 595.28 216"
   xml:space="preserve"
   inkscape:version="0.48.4 r9939"
   sodipodi:docname="steckerlogo.svg"><metadata
     id="metadata13"><rdf:RDF><cc:Work
         rdf:about=""><dc:format>image/svg+xml</dc:format><dc:type
           rdf:resource="http://purl.org/dc/dcmitype/StillImage" /></cc:Work></rdf:RDF></metadata><defs
     id="defs11" /><sodipodi:namedview
     pagecolor="#ffffff"
     bordercolor="#666666"
     borderopacity="1"
     objecttolerance="10"
     gridtolerance="10"
     guidetolerance="10"
     inkscape:pageopacity="0"
     inkscape:pageshadow="2"
     inkscape:window-width="1015"
     inkscape:window-height="588"
     id="namedview9"
     showgrid="false"
     inkscape:zoom="0.17260784"
     inkscape:cx="119.83453"
     inkscape:cy="10.943404"
     inkscape:window-x="359"
     inkscape:window-y="299"
     inkscape:window-maximized="0"
     inkscape:current-layer="Ebene_1" /><g
     id="g3"
     transform="matrix(1.6959595,0,0,1.6959595,-6.4675517,113.30222)"><path
       clip-rule="evenodd"
       d="m 487.444,6.475 c 3.429,0.327 6.856,0.664 10.288,0.975 13.382,1.215 26.631,3.06 39.19,8.214 4.431,1.817 8.089,4.772 11.961,7.515 4.822,3.414 8.908,7.396 12.399,12.021 8.396,11.125 15.795,22.867 21.246,35.749 0.56,1.323 0.777,2.792 1.152,4.192 -0.242,0.148 -0.482,0.297 -0.725,0.446 -1.183,-1.004 -2.391,-1.98 -3.543,-3.018 C 566.327,60.779 553.28,48.948 540.14,37.22 c -2.204,-1.968 -4.633,-3.826 -7.248,-5.17 -7.826,-4.022 -16.214,-6.33 -24.974,-7.172 -12.972,-1.247 -25.807,-0.407 -38.578,2.289 -10.271,2.168 -20.682,3.683 -30.934,5.938 -5.45,1.2 -10.734,3.233 -16.021,5.101 -15.471,5.467 -30.053,12.809 -44.533,20.519 -9.661,5.145 -19.044,10.66 -28.321,16.418 -1.83,1.136 -3.861,1.947 -5.809,2.889 -3.819,1.847 -7.553,3.91 -11.487,5.463 -5.572,2.199 -11.291,4.026 -16.95,5.999 -3.331,1.16 -6.695,2.218 -9.99,3.464 -2.215,0.837 -3.117,2.307 -3.628,4.953 -1.041,5.379 -3.009,10.607 -4.902,15.785 -1.851,5.061 -4.921,9.34 -9.315,12.624 -11.151,8.334 -25.98,6.393 -34.535,-4.612 -1.724,-2.22 -3.251,-4.601 -5.046,-6.758 -0.509,-0.611 -1.788,-1.156 -2.479,-0.95 -12.741,3.827 -25.432,7.812 -38.165,11.656 -2.856,0.861 -3.853,2.436 -4.19,5.457 -0.855,7.718 -1.794,15.486 -3.588,23.024 -2.146,9.014 -8.278,15.693 -15.195,21.492 -1.883,1.577 -4.536,2.441 -6.978,3.107 -19.567,5.347 -39.168,10.566 -58.76,15.822 -0.986,0.265 -1.977,0.511 -2.966,0.765 -1.61,0 -3.219,0 -4.83,0 -0.782,-1.715 -1.639,-3.403 -2.323,-5.157 -0.47,-1.202 -0.904,-2.432 -2.463,-2 -2.164,0.598 -3.375,-0.521 -4.361,-2.112 -2.034,-3.274 -4.089,-6.541 -5.976,-9.9 -0.815,-1.45 -1.582,-1.785 -3.235,-1.323 -8.338,2.337 -16.719,4.521 -25.089,6.741 -10.147,2.688 -20.198,6.015 -30.979,3.681 -1.749,-0.378 -2.826,-0.967 -3.215,-2.647 -0.598,-2.578 -1.259,-5.148 -1.645,-7.756 -0.126,-0.85 0.278,-2.029 0.858,-2.689 4.042,-4.601 9.21,-7.504 15.025,-9.158 11.103,-3.161 22.254,-6.147 33.384,-9.213 1.191,-0.328 2.371,-0.704 3.444,-1.026 -2.171,-5.469 -4.234,-10.681 -6.312,-15.89 -0.638,-1.601 -0.484,-2.86 1.014,-4.023 0.6,-0.468 1.081,-1.756 0.877,-2.457 -0.483,-1.662 -1.352,-3.225 -2.167,-4.773 -0.798,-1.518 -2.136,-2.869 -2.52,-4.465 -1.594,-6.616 -2.894,-13.302 -4.368,-19.95 -0.169,-0.763 -0.75,-1.434 -1.14,-2.146 -0.443,0.705 -0.874,1.418 -1.331,2.114 -0.409,0.623 -0.729,1.495 -1.31,1.75 -0.434,0.19 -1.22,-0.436 -1.854,-0.686 -0.814,-0.323 -1.629,-0.879 -2.449,-0.891 -1.182,-0.018 -2.385,0.299 -3.551,0.588 -9.65,2.387 -19.296,4.792 -28.939,7.209 -4.724,1.185 -9.388,0.94 -14.018,-0.477 -1.949,-0.596 -3.411,-1.639 -4.024,-3.743 -0.842,-2.893 -1.832,-5.743 -2.758,-8.611 0,-0.645 0,-1.288 0,-1.932 1.942,-1.1 3.855,-2.251 5.829,-3.289 10.992,-5.783 22.968,-8.477 34.949,-11.21 5.147,-1.173 10.205,-2.745 15.283,-4.209 1.863,-0.538 2.551,-1.803 2.388,-3.852 -0.203,-2.553 -0.312,-5.205 0.169,-7.691 0.389,-2.01 1.297,-4.267 2.72,-5.646 2.128,-2.065 2.862,-4.115 2.137,-6.875 -0.577,-2.198 0.228,-3.824 2.302,-4.7 3.761,-1.588 7.443,-3.501 11.354,-4.571 16.317,-4.467 32.67,-8.825 49.089,-12.903 7.25,-1.802 14.549,-5.16 22.211,-1.411 0.07,0.034 0.163,0.015 0.237,0.045 2.312,0.981 4.835,1.654 6.875,3.036 2.165,1.464 4.05,3.453 5.748,5.471 7.406,8.794 13.834,18.287 20.233,28.685 10.753,-2.881 21.821,-6.125 33.04,-8.735 5.488,-1.277 7.786,-3.992 9.356,-9.481 4.565,-15.95 13.263,-22.949 29.972,-22.537 0.948,0.023 2.072,0.036 2.809,0.52 3.821,2.511 7.901,4.793 11.204,7.888 3.473,3.255 6.133,7.368 9.231,11.037 0.585,0.693 1.577,1.542 2.335,1.5 2.96,-0.166 5.931,-0.504 8.844,-1.062 7.953,-1.525 15.886,-3.165 23.812,-4.822 2.29,-0.479 4.141,-0.244 5.894,1.604 0.867,0.914 2.54,1.571 3.8,1.501 2.78,-0.153 5.629,-0.53 8.276,-1.364 19.045,-5.993 38.048,-12.11 57.057,-18.214 7.022,-2.255 13.878,-5.347 21.065,-6.714 15.524,-2.955 31.22,-5.02 46.837,-7.5 4.491,-0.712 8.957,-1.596 13.433,-2.402 3.224,-0.005 6.443,-0.005 9.662,-0.005 z M 154.983,30.336 c -1.625,5.424 -6.073,6.466 -10.488,7.608 -5.976,1.544 -11.925,3.193 -17.903,4.728 -9.767,2.507 -19.548,4.958 -29.583,7.498 8.262,14.943 17.006,29.437 21.664,45.876 22.156,-5.52 43.818,-11.962 66.205,-16.561 0.928,4.895 1.872,9.356 2.597,13.852 0.937,5.821 1.531,5.132 -4.332,6.797 -18.895,5.364 -37.83,10.586 -56.781,15.749 -1.969,0.538 -2.268,1.31 -2.017,3.165 1.33,9.784 2.566,19.584 3.731,29.391 0.545,4.591 0.854,9.213 1.289,14.023 8.474,-2.271 16.744,-4.497 25.017,-6.707 13.477,-3.602 26.965,-7.169 40.423,-10.844 0.882,-0.242 2.029,-1.151 2.226,-1.953 0.594,-2.403 0.931,-4.898 1.092,-7.374 0.763,-11.692 -0.146,-23.202 -2.774,-34.687 -4.374,-19.096 -10.838,-37.272 -21.685,-53.697 -2.245,-3.398 -3.967,-7.52 -8.738,-8.388 -0.331,-0.06 -0.723,-0.435 -0.872,-0.761 -1.752,-3.801 -5.454,-5.287 -9.071,-7.715 z m 51.173,90.278 c 0.996,-0.17 1.957,-0.231 2.852,-0.503 6.753,-2.052 13.426,-4.4 20.252,-6.151 7.982,-2.05 16.071,-3.725 24.175,-5.246 1.904,-0.358 4.148,0.265 6.044,0.961 1.629,0.596 2.415,2.409 1.537,3.982 -0.314,0.564 -2.214,0.462 -3.339,0.301 -1.275,-0.18 -2.49,-0.767 -4.264,-1.349 0.309,1.221 0.358,1.932 0.653,2.521 5.742,11.382 21.363,15.05 31.325,7.158 1.974,-1.563 3.293,-4.062 4.637,-6.294 5.124,-8.524 8.316,-17.583 6.84,-27.725 -1.731,-11.888 -5.394,-23.26 -9.561,-34.478 -0.496,-1.338 -1.173,-2.707 -2.116,-3.747 -0.672,-0.742 -1.927,-0.958 -2.92,-1.408 -0.066,1.025 -0.456,2.163 -0.146,3.056 1.086,3.101 2.449,6.104 3.641,9.17 0.971,2.499 1.849,5.032 2.92,7.969 -2.53,0 -4.566,0 -6.849,0 0.466,1.325 0.835,2.289 1.14,3.274 0.738,2.37 1.514,4.731 2.108,7.138 0.131,0.534 -0.272,1.566 -0.711,1.773 -0.45,0.212 -1.381,-0.144 -1.854,-0.543 -0.651,-0.551 -1.23,-1.31 -1.56,-2.096 -0.833,-1.992 -1.499,-4.053 -2.25,-6.08 -0.701,-1.888 -0.852,-4.249 -3.742,-4.26 -0.295,-0.001 -0.644,-0.462 -0.878,-0.776 -1.648,-2.206 -3.386,-4.355 -4.882,-6.661 -3.146,-4.846 -6.105,-9.812 -9.243,-14.663 -2.703,-4.18 -6.764,-6.444 -11.461,-7.746 -0.897,-0.249 -1.715,-0.787 -2.566,-1.19 0.7,-0.664 1.294,-1.67 2.124,-1.934 4.432,-1.404 8.912,-2.658 13.403,-3.864 0.602,-0.162 1.48,0.056 2.02,0.416 4.398,2.931 8.742,5.948 13.117,8.917 0.723,0.492 1.521,0.879 2.286,1.314 0.102,-0.184 0.205,-0.367 0.309,-0.551 -5.276,-4.954 -10.812,-9.512 -18.144,-11.225 -4.646,-1.085 -9.118,-0.697 -13.185,1.979 -7.406,4.874 -8.997,12.974 -11.751,20.79 1.041,-0.229 1.666,-0.336 2.271,-0.504 2.143,-0.596 4.379,-1.072 3.551,-4.25 -0.099,-0.382 0.681,-1.358 1.181,-1.464 1.469,-0.315 3.021,-0.539 4.508,-0.414 2.103,0.176 2.998,1.87 1.82,3.607 -0.961,1.419 -2.233,2.956 -3.732,3.622 -4.375,1.947 -8.857,3.728 -13.433,5.135 -11.034,3.392 -22.145,6.527 -33.218,9.79 -0.825,0.243 -1.595,0.678 -2.392,1.023 0.091,0.294 0.178,0.588 0.269,0.881 4.547,-0.85 9.106,-1.644 13.63,-2.604 0.742,-0.158 1.258,-1.188 2.006,-1.559 0.943,-0.467 2.006,-0.903 3.03,-0.938 1.52,-0.051 3.121,0.631 4.57,0.363 10.438,-1.928 20.43,-6.042 31.253,-6.168 1.781,-0.021 2.476,0.351 3.291,1.863 1.539,2.856 3.428,5.524 5.226,8.234 0.617,0.93 1.554,1.675 2.034,2.655 0.259,0.527 0.082,1.826 -0.278,2.002 -1.881,0.924 -1.596,2.395 -1.272,3.923 0.244,1.164 0.551,2.315 0.757,3.166 -12.858,3.313 -25.61,6.599 -38.358,9.884 7.824,-0.968 15.542,-2.39 23.28,-3.702 2.528,-0.429 5.104,-0.73 7.659,-0.741 0.761,-0.003 1.525,1.183 2.29,1.823 -0.649,0.538 -1.221,1.348 -1.961,1.555 -1.378,0.385 -2.871,0.329 -4.285,0.611 -13.45,2.693 -26.893,5.424 -40.341,8.126 -1.19,0.24 -1.662,0.79 -1.754,2.09 -0.195,2.718 -0.585,5.432 -1.054,8.117 -0.244,1.389 -1.173,2.712 -1.192,4.073 -0.033,2.382 0.401,4.769 0.683,7.572 z m -106.91,52.451 c 1.271,2.205 2.344,4.148 3.497,6.047 1.381,2.271 3.332,3.501 6.089,3.758 1.009,0.093 2.102,1.181 2.805,2.087 0.6,0.774 0.705,1.936 1.015,2.932 0.92,2.968 1.391,3.274 4.024,2.608 2.572,-0.651 3.055,-1.45 2.539,-4.198 -0.089,-0.473 -0.187,-0.946 -0.249,-1.423 -0.586,-4.527 -0.608,-4.576 3.484,-6.613 1.51,-0.75 2.519,-1.737 2.549,-3.448 0.054,-3.13 0.249,-6.277 0.002,-9.387 -0.809,-10.171 -1.72,-20.337 -2.739,-30.489 -0.449,-4.467 -1.147,-8.918 -1.936,-13.339 -0.478,-2.68 -1.998,-3.437 -4.521,-2.653 -0.763,0.238 -1.538,0.48 -2.248,0.84 -9.886,4.996 -19.751,10.032 -29.652,14.997 -1.36,0.683 -1.437,1.608 -0.982,2.763 1.44,3.652 2.875,7.309 4.412,10.921 0.93,2.182 2.654,2.792 4.95,2.224 3.502,-0.867 7.025,-1.66 10.558,-2.398 3.231,-0.676 4.912,0.267 5.817,3.452 1.161,4.084 2.224,8.204 3.145,12.349 0.885,3.978 -0.014,5.356 -3.985,6.562 -2.733,0.832 -5.499,1.551 -8.574,2.408 z M 83.833,48.148 c -4.139,0.502 -6.16,2.545 -6.041,5.874 0.106,2.964 -0.446,5.353 -3.332,6.853 -0.75,0.39 -1.525,1.427 -1.626,2.25 -0.456,3.684 -0.673,7.397 -0.997,11.354 4.938,-1.037 9.298,-1.953 13.75,-2.889 2.18,7.223 4.882,14.026 4.936,21.598 -5.341,1.451 -10.566,2.869 -15.837,4.301 0.809,6.282 1.594,12.38 2.405,18.675 0.796,-0.401 1.51,-0.721 2.188,-1.105 7.462,-4.254 14.881,-8.588 22.394,-12.75 3.217,-1.782 6.559,-3.386 9.979,-4.728 1.472,-0.578 1.979,-1.245 1.595,-2.574 -0.756,-2.61 -1.486,-5.244 -2.501,-7.758 -4.552,-11.262 -10.282,-21.928 -16.541,-32.323 -1.142,-1.895 -2.104,-2.851 -4.76,-1.888 -2.12,0.769 -4.866,0.271 -7.219,-0.216 -1.916,-0.396 -1.977,-1.917 -0.397,-3.117 0.501,-0.381 0.995,-0.772 2.004,-1.557 z m 40.99,141.369 c 16.721,-4.497 33.256,-8.94 49.792,-13.388 2.294,-0.619 3.505,-2.725 2.699,-5.295 -0.685,-2.18 -2.551,-1.139 -3.859,-0.827 -10.592,2.527 -21.162,5.135 -31.732,7.75 -6.192,1.533 -12.372,3.125 -18.757,4.739 0.653,2.468 1.24,4.69 1.857,7.021 z M 319.784,64.675 c 0.038,0.234 0.073,0.467 0.109,0.699 0.397,-0.027 0.795,-0.041 1.188,-0.084 1.916,-0.212 3.267,0.545 3.357,2.516 0.099,2.095 -1.786,1.7 -3.005,1.853 -3.426,0.431 -6.874,0.669 -10.304,1.086 -3.717,0.454 -3.968,0.794 -3.864,4.522 0.034,1.204 0.091,2.412 0.22,3.609 0.345,3.192 1.146,6.524 -3.121,8.167 0.982,0.138 1.77,0.189 2.481,-0.018 7.691,-2.241 15.359,-4.552 23.057,-6.773 2.106,-0.608 2.814,-1.854 2.438,-3.945 -0.64,-3.551 -1.292,-7.103 -1.78,-10.675 -0.228,-1.661 -1.144,-2.335 -2.578,-2.18 -2.744,0.298 -5.465,0.804 -8.198,1.223 z m -211.199,39.222 c -8.561,4.57 -17.449,9.317 -26.503,14.152 1.023,3.348 1.964,6.474 2.937,9.589 0.412,1.317 1.079,1.764 2.498,0.994 7.045,-3.833 14.14,-7.572 21.208,-11.361 0.705,-0.378 1.368,-0.844 2.019,-1.313 1.544,-1.113 1.895,-2.54 0.917,-4.187 -0.819,-1.381 -1.888,-2.634 -2.532,-4.084 -0.442,-0.991 -0.345,-2.223 -0.544,-3.79 z M 27.32,94.899 C 46.176,89.689 65.217,84.427 84.285,79.158 82.78,74.58 82.436,74.363 78.458,75.019 c -0.473,0.079 -0.944,0.182 -1.406,0.308 -15.931,4.338 -31.863,8.665 -47.786,13.029 -4.867,1.333 -4.99,1.733 -2.389,6.195 0.04,0.064 0.125,0.101 0.443,0.348 z m 22.127,87.455 c 0.637,-0.121 1.033,-0.165 1.412,-0.271 13.811,-3.891 27.621,-7.786 41.431,-11.677 4.399,-1.241 8.818,-2.413 13.182,-3.762 0.741,-0.231 1.252,-1.204 1.869,-1.832 -0.697,-0.579 -1.326,-1.302 -2.119,-1.681 -0.491,-0.234 -1.251,-0.024 -1.858,0.121 -8.261,1.985 -16.541,3.902 -24.768,6.022 -9.843,2.536 -19.639,5.254 -29.585,7.93 0.146,1.73 0.28,3.309 0.436,5.15 z M 85.866,85.493 c -0.544,0.087 -1.099,0.129 -1.628,0.267 -12.488,3.267 -24.99,6.481 -37.452,9.848 -5.877,1.588 -11.7,3.395 -17.478,5.312 -0.809,0.269 -1.219,1.739 -1.814,2.653 0.954,0.224 1.999,0.822 2.848,0.618 12.313,-2.976 24.605,-6.039 36.889,-9.13 5.13,-1.291 10.27,-2.564 15.33,-4.094 3.154,-0.954 3.753,-2.254 3.305,-5.474 z m 44.3,89.418 c 0.072,0.333 0.145,0.663 0.217,0.996 2.525,-0.538 5.039,-1.134 7.578,-1.594 1.394,-0.25 3.482,-0.923 4.13,-0.28 2.305,2.305 4.646,1.215 6.898,0.59 13.208,-3.664 26.373,-7.495 39.583,-11.157 2.576,-0.713 3.917,-1.924 3.255,-4.983 -20.641,5.152 -41.378,9.942 -61.661,16.428 z M 395.996,32.89 c 0.209,0.316 0.417,0.633 0.625,0.949 3.115,-1.758 6.17,-3.639 9.36,-5.25 6.511,-3.29 13.093,-6.496 20.339,-7.841 6.309,-1.17 12.675,-2.018 19,-3.103 9.405,-1.614 18.819,-3.185 28.178,-5.034 3.513,-0.694 7.276,-0.988 10.68,-3.617 -1.219,0 -1.987,-0.093 -2.726,0.014 -13.015,1.89 -26.001,4.01 -39.047,5.657 -14.167,1.788 -27.304,6.204 -39.308,13.96 -2.32,1.499 -4.731,2.847 -7.101,4.265 z M 213.927,84.092 c 1.461,-0.248 2.426,-0.34 3.357,-0.58 9.16,-2.364 18.331,-4.688 27.46,-7.168 2.926,-0.796 5.793,-1.888 8.564,-3.125 0.787,-0.352 1.137,-1.687 1.688,-2.571 -0.897,-0.178 -1.9,-0.705 -2.672,-0.471 -3.062,0.925 -6.035,2.142 -9.076,3.148 -2.497,0.826 -5.01,2.004 -7.568,2.159 -7.627,0.461 -14.796,2.691 -21.935,5.089 -0.615,0.206 -1.229,1.403 -1.225,2.138 0.002,0.525 1.038,1.045 1.407,1.381 z m -22.719,67.552 c -0.059,-0.272 -0.117,-0.543 -0.176,-0.813 -0.388,0.03 -0.784,0.022 -1.162,0.096 -8.1,1.596 -16.198,3.189 -24.294,4.809 -9.743,1.953 -19.478,3.963 -28.725,7.746 -2.32,0.948 -4.522,2.186 -6.778,3.293 0.118,0.324 0.236,0.647 0.354,0.971 20.261,-5.368 40.52,-10.735 60.781,-16.102 z m 61.175,-85.53 c -1.639,-0.875 -2.809,-1.931 -4.088,-2.088 -2.445,-0.301 -4.997,-0.394 -7.425,-0.029 -5.698,0.855 -11.353,2.006 -17.012,3.118 -0.591,0.116 -1.586,0.922 -1.518,1.139 0.233,0.761 0.715,1.602 1.359,2.033 0.598,0.402 1.556,0.531 2.297,0.411 2.283,-0.37 4.539,-0.91 6.802,-1.396 1.949,-0.419 3.868,-1.828 5.874,-0.01 0.276,0.25 1.086,-0.01 1.62,-0.141 3.719,-0.917 7.426,-1.861 12.091,-3.037 z M 49.607,173.684 c 0.053,0.263 0.105,0.526 0.157,0.79 6.302,0.089 53.61,-13.093 56.34,-16.134 -18.833,5.115 -37.665,10.231 -56.497,15.344 z m -1.274,-4.837 c 7.572,-0.349 53.431,-12.812 56.156,-15.193 -18.972,4.116 -37.719,9.065 -56.156,15.193 z M 28.331,98.227 C 47.037,94.391 65.444,89.39 83.627,83.548 78.49,83.422 32.543,95.556 28.331,98.227 z M 338.255,50.805 c 0.087,0.206 0.175,0.413 0.262,0.619 1.298,-0.543 2.619,-1.034 3.887,-1.637 8.975,-4.271 17.881,-8.693 26.928,-12.799 5.547,-2.517 11.321,-4.525 16.961,-6.843 0.868,-0.357 1.561,-1.147 2.335,-1.736 -0.161,-0.204 -0.321,-0.407 -0.484,-0.61 -17.17,6.512 -33.784,14.216 -49.889,23.006 z M 201.947,73.48 c 0.019,0.329 0.042,0.66 0.062,0.989 0.772,0.358 1.516,0.811 2.322,1.054 2.066,0.623 4.196,1.048 6.234,1.745 2.771,0.945 5.432,0.068 7.078,-2.594 -0.763,0.12 -1.48,0.361 -2.176,0.312 -0.961,-0.068 -1.908,-0.355 -2.862,-0.547 0.496,-0.94 0.799,-2.076 1.525,-2.777 1.333,-1.289 2.911,-2.322 4.958,-3.902 -6.172,2.059 -11.656,3.89 -17.141,5.72 z M 306.148,47.393 c 1.777,0.884 2.973,1.79 4.298,2.055 1.438,0.287 3.011,0.103 4.493,-0.105 1.741,-0.244 3.431,-0.92 5.17,-1.064 1.416,-0.116 2.873,0.283 4.313,0.444 0.373,0.042 1.043,0.148 1.076,0.053 0.167,-0.486 0.334,-1.074 0.203,-1.544 -0.551,-2.001 -3.091,-3.794 -5.28,-3.333 -4.676,0.984 -9.291,2.255 -14.273,3.494 z m -61.665,32.269 c -10.064,1.942 -19.981,4.441 -29.527,8.249 10.301,-1.096 20.061,-4.124 29.527,-8.249 z m 67.568,-23.595 c 2.934,-0.887 5.496,-1.535 7.939,-2.488 0.589,-0.23 1.215,-1.596 1.035,-2.21 -0.182,-0.63 -1.419,-1.481 -2.036,-1.369 -2.576,0.471 -5.125,1.172 -7.601,2.026 -0.528,0.183 -1.086,1.441 -0.958,2.065 0.152,0.731 1.038,1.311 1.621,1.976 z m -14.145,1.587 c -0.03,0.208 -0.061,0.417 -0.089,0.626 1.603,0.254 2.724,2.46 4.798,1.006 0.117,-0.083 0.677,0.543 1.074,0.764 0.649,0.366 1.39,1.025 1.995,0.933 1.844,-0.276 3.638,-0.854 5.45,-1.313 -0.026,-0.184 -0.055,-0.367 -0.083,-0.551 -4.382,-0.488 -8.764,-0.977 -13.145,-1.465 z m 1.49,14.724 c -1.493,-3.319 -2.984,-6.639 -4.476,-9.959 -0.496,4.469 1.207,8.253 4.476,9.959 z m -44.072,5.702 c -4.707,-0.598 -6.066,3.801 -9.361,4.539 3.154,-1.022 6.952,-0.736 9.361,-4.539 z m 44.861,7.726 c 0.218,-0.102 0.436,-0.206 0.651,-0.309 -0.916,-3.729 -1.556,-7.561 -3.598,-10.87 -0.347,0.127 -0.695,0.255 -1.043,0.382 1.331,3.601 2.661,7.199 3.99,10.797 z m -0.098,-32.455 c 3.069,0.753 4.076,-0.139 3.966,-3.033 -1.431,1.094 -2.699,2.063 -3.966,3.033 z m 25.053,3.934 c -0.132,-0.291 -0.265,-0.581 -0.397,-0.872 -1.955,0.911 -3.91,1.821 -5.866,2.732 0.123,0.27 0.246,0.539 0.367,0.809 1.963,-0.891 3.932,-1.78 5.896,-2.669 z M 182.272,170.3 c 0.413,0.149 0.825,0.299 1.238,0.449 0.413,-1.075 0.848,-2.145 1.185,-3.242 0.021,-0.072 -0.713,-0.375 -1.096,-0.571 -0.441,1.12 -0.884,2.244 -1.327,3.364 z"
       id="path5"
       inkscape:connector-curvature="0"
       style="fill-rule:evenodd" /><path
       clip-rule="evenodd"
       d="m 191.364,141.689 c -1.699,0.812 -3.357,1.726 -5.104,2.418 -15.083,5.996 -30.597,10.572 -46.492,13.831 -2.341,0.479 -4.782,0.549 -7.181,0.613 -0.747,0.021 -1.511,-0.602 -2.269,-0.931 0.588,-0.655 1.057,-1.66 1.782,-1.904 4.327,-1.448 8.674,-2.869 13.087,-4.023 13.878,-3.632 27.781,-7.167 41.699,-10.647 1.355,-0.34 2.873,-0.045 4.315,-0.045 0.053,0.23 0.11,0.459 0.163,0.688 z"
       id="path7"
       inkscape:connector-curvature="0"
       style="fill-rule:evenodd" /></g></svg>